<svg width="71" height="30" viewBox="0 0 71 30" fill="none" xmlns="http://www.w3.org/2000/svg">
<path d="M4.0792 2.456V14.552C4.0792 15.8773 4.42454 16.8947 5.1152 17.604C5.80587 18.2947 6.77654 18.64 8.0272 18.64C9.29654 18.64 10.2765 18.2947 10.9672 17.604C11.6579 16.8947 12.0032 15.8773 12.0032 14.552V2.456H15.9512V14.524C15.9512 16.1853 15.5872 17.5947 14.8592 18.752C14.1499 19.8907 13.1885 20.7493 11.9752 21.328C10.7805 21.9067 9.44587 22.196 7.9712 22.196C6.5152 22.196 5.18987 21.9067 3.9952 21.328C2.8192 20.7493 1.88587 19.8907 1.1952 18.752C0.504537 17.5947 0.159203 16.1853 0.159203 14.524V2.456H4.0792ZM28.3346 6.264C30.1826 6.264 31.676 6.852 32.8146 8.028C33.9533 9.18533 34.5226 10.8093 34.5226 12.9V22H30.6026V13.432C30.6026 12.2 30.2946 11.2573 29.6786 10.604C29.0626 9.932 28.2226 9.596 27.1586 9.596C26.076 9.596 25.2173 9.932 24.5826 10.604C23.9666 11.2573 23.6586 12.2 23.6586 13.432V22H19.7386V6.488H23.6586V8.42C24.1813 7.748 24.844 7.22533 25.6466 6.852C26.468 6.46 27.364 6.264 28.3346 6.264ZM40.2384 4.64C39.5477 4.64 38.969 4.42533 38.5024 3.996C38.0544 3.548 37.8304 2.99733 37.8304 2.344C37.8304 1.69067 38.0544 1.14933 38.5024 0.719999C38.969 0.271999 39.5477 0.0479989 40.2384 0.0479989C40.929 0.0479989 41.4984 0.271999 41.9464 0.719999C42.413 1.14933 42.6464 1.69067 42.6464 2.344C42.6464 2.99733 42.413 3.548 41.9464 3.996C41.4984 4.42533 40.929 4.64 40.2384 4.64ZM42.1704 6.488V22H38.2504V6.488H42.1704ZM53.1553 9.708H50.4393V22H46.4633V9.708H44.6993V6.488H46.4633V5.704C46.4633 3.8 47.0047 2.4 48.0873 1.504C49.17 0.607999 50.8033 0.187999 52.9873 0.244V3.548C52.0353 3.52933 51.3727 3.688 50.9993 4.024C50.626 4.36 50.4393 4.96667 50.4393 5.844V6.488H53.1553V9.708ZM70.5357 6.488L60.9317 29.336H56.7597L60.1197 21.608L53.9037 6.488H58.2997L62.3037 17.324L66.3637 6.488H70.5357Z" fill="white"/>
</svg>
