<svg width="56" height="56" viewBox="0 0 56 56" fill="none" xmlns="http://www.w3.org/2000/svg">
<path d="M28.0002 35.5712C25.5635 35.5712 23.1816 34.8486 21.1556 33.4949C19.1295 32.1411 17.5505 30.217 16.618 27.9658C15.6855 25.7146 15.4415 23.2375 15.9169 20.8476C16.3923 18.4578 17.5656 16.2626 19.2886 14.5396C21.0116 12.8166 23.2068 11.6433 25.5967 11.1679C27.9865 10.6925 30.4637 10.9365 32.7148 11.869C34.966 12.8014 36.8901 14.3805 38.2439 16.4065C39.5976 18.4325 40.3202 20.8145 40.3202 23.2512C40.3166 26.5175 39.0175 29.6491 36.7078 31.9588C34.3981 34.2685 31.2666 35.5676 28.0002 35.5712ZM28.0002 13.1712C26.0065 13.1712 24.0577 13.7623 22.4 14.8699C20.7424 15.9775 19.4504 17.5518 18.6875 19.3937C17.9245 21.2356 17.7249 23.2623 18.1139 25.2177C18.5028 27.173 19.4628 28.9691 20.8725 30.3788C22.2823 31.7885 24.0783 32.7485 26.0337 33.1375C27.989 33.5264 30.0158 33.3268 31.8576 32.5639C33.6995 31.8009 35.2738 30.509 36.3814 28.8513C37.489 27.1937 38.0802 25.2448 38.0802 23.2512C38.0802 20.5778 37.0182 18.0139 35.1278 16.1235C33.2375 14.2332 30.6736 13.1712 28.0002 13.1712ZM28.0002 39.0656L27.933 39.1552C27.9524 39.1406 27.9759 39.1328 28.0002 39.1328C28.0244 39.1328 28.048 39.1406 28.0674 39.1552L28.0002 39.0656Z" fill="#536784"/>
<path d="M44.4639 19.8242C43.9185 19.4228 43.4548 18.921 43.0975 18.3458C43.0429 17.6361 43.1188 16.9225 43.3215 16.2402C43.5772 15.6011 43.6935 14.9148 43.6626 14.2272C43.6317 13.5396 43.4543 12.8665 43.1423 12.253C42.6513 11.7625 42.0623 11.3813 41.4138 11.1342C40.7653 10.8872 40.0719 10.7799 39.3791 10.8194C38.6791 10.8265 37.9852 10.6893 37.3407 10.4162C36.8804 9.88563 36.5301 9.26888 36.3103 8.60177C35.7727 7.34737 35.1679 5.91377 33.7791 5.46577C33.1076 5.35445 32.42 5.38884 31.763 5.56663C31.1059 5.74441 30.4948 6.06143 29.9711 6.49617C29.3798 6.9175 28.7092 7.21468 27.9999 7.36977C27.2906 7.21468 26.62 6.9175 26.0287 6.49617C25.505 6.06143 24.8938 5.74441 24.2368 5.56663C23.5798 5.38884 22.8922 5.35445 22.2207 5.46577C20.8319 5.91377 20.2271 7.34737 19.6895 8.60177C19.4697 9.26888 19.1194 9.88563 18.6591 10.4162C18.0146 10.6893 17.3207 10.8265 16.6207 10.8194C15.9279 10.7799 15.2345 10.8872 14.586 11.1342C13.9375 11.3813 13.3485 11.7625 12.8575 12.253C12.5455 12.8665 12.3681 13.5396 12.3372 14.2272C12.3063 14.9148 12.4226 15.6011 12.6783 16.2402C12.881 16.9225 12.9569 17.6361 12.9023 18.3458C12.545 18.921 12.0813 19.4228 11.5359 19.8242C10.9387 20.2015 10.4296 20.7028 10.0431 21.2941C9.65665 21.8855 9.40181 22.5529 9.2959 23.2514C9.40181 23.9498 9.65665 24.6173 10.0431 25.2086C10.4296 25.7999 10.9387 26.3012 11.5359 26.6786C12.0813 27.08 12.545 27.5817 12.9023 28.157C12.9569 28.8666 12.881 29.5803 12.6783 30.2626C12.4226 30.9016 12.3063 31.5879 12.3372 32.2755C12.3681 32.9632 12.5455 33.6362 12.8575 34.2498C13.3294 34.7343 13.8991 35.1128 14.5286 35.36C15.1582 35.6071 15.8332 35.7174 16.5087 35.6834H16.6207C17.3207 35.6762 18.0146 35.8135 18.6591 36.0866C18.7371 36.142 18.8052 36.2102 18.8607 36.2882C19.2041 36.7885 19.4826 37.3305 19.6895 37.901C20.2271 39.1554 20.8319 40.589 22.2207 41.037C22.6773 41.1814 23.1636 41.2046 23.6319 41.1042C24.4878 40.8784 25.2986 40.5071 26.0287 40.0066C26.6054 39.6079 27.251 39.3193 27.9327 39.1554L27.9999 39.0658L28.0671 39.1554C28.7488 39.3193 29.3944 39.6079 29.9711 40.0066C30.7062 40.4982 31.5154 40.8687 32.3679 41.1042C32.5738 41.1498 32.7842 41.1724 32.9951 41.1714C33.2619 41.1686 33.5266 41.1232 33.7791 41.037C35.1679 40.589 35.7727 39.1554 36.3103 37.901C36.5172 37.3305 36.7957 36.7885 37.1391 36.2882C37.1946 36.2102 37.2627 36.142 37.3407 36.0866C37.9852 35.8135 38.6791 35.6762 39.3791 35.6834H39.4911C40.1666 35.7174 40.8416 35.6071 41.4712 35.36C42.1007 35.1128 42.6704 34.7343 43.1423 34.2498C43.4543 33.6362 43.6317 32.9632 43.6626 32.2755C43.6935 31.5879 43.5772 30.9016 43.3215 30.2626C43.1188 29.5803 43.0429 28.8666 43.0975 28.157C43.4548 27.5817 43.9185 27.08 44.4639 26.6786C45.0611 26.3012 45.5702 25.7999 45.9567 25.2086C46.3431 24.6173 46.598 23.9498 46.7039 23.2514C46.598 22.5529 46.3431 21.8855 45.9567 21.2941C45.5702 20.7028 45.0611 20.2015 44.4639 19.8242ZM43.0079 24.9762C42.1251 25.6151 41.4229 26.4717 40.9695 27.4626C40.7395 28.5569 40.8013 29.6925 41.1487 30.7554C41.3279 31.5394 41.5743 32.5922 41.3279 32.9282C41.0815 33.2642 39.9839 33.3762 39.1775 33.4434C38.4882 33.4842 37.805 33.5969 37.1391 33.7794C37.1167 33.7794 37.0943 33.8018 37.0719 33.8018C36.6924 33.8965 36.3349 34.0638 36.0191 34.2946C35.1982 35.0241 34.5872 35.9599 34.2495 37.005C33.9359 37.7666 33.5103 38.7746 33.0847 38.909C32.7263 39.021 31.7855 38.4834 31.1135 38.0802C30.512 37.6974 29.8743 37.3747 29.2095 37.117C29.1647 37.117 29.1423 37.0946 29.1199 37.0946C29.0368 37.0514 28.9447 37.0283 28.8511 37.0274C28.8287 37.005 28.8287 37.005 28.8063 37.005C28.2791 36.8556 27.7207 36.8556 27.1935 37.005C27.1711 37.005 27.1711 37.005 27.1487 37.0274C27.0551 37.0283 26.963 37.0514 26.8799 37.0946C26.8575 37.0946 26.8351 37.117 26.7903 37.117C26.1255 37.3747 25.4878 37.6974 24.8863 38.0802C24.2143 38.4834 23.2735 39.0434 22.9151 38.909C22.4895 38.7746 22.0639 37.7666 21.7503 37.005C21.4126 35.9599 20.8016 35.0241 19.9807 34.2946C19.7113 34.0927 19.4078 33.9409 19.0847 33.8466C18.9658 33.7859 18.8367 33.748 18.7039 33.7346C18.0867 33.5813 17.457 33.4839 16.8223 33.4434C16.0159 33.3762 14.9183 33.2642 14.6719 32.9282C14.4255 32.5922 14.6719 31.5394 14.8511 30.7554C15.1985 29.6925 15.2603 28.5569 15.0303 27.4626C14.5769 26.4717 13.8747 25.6151 12.9919 24.9762C12.3423 24.4162 11.5359 23.6994 11.5359 23.2514C11.5359 22.8034 12.3423 22.0866 12.9919 21.5042C13.8784 20.8787 14.5821 20.0282 15.0303 19.0402C15.2603 17.9458 15.1985 16.8103 14.8511 15.7474C14.6719 14.9634 14.4255 13.9106 14.6719 13.5746C14.9183 13.2386 16.0159 13.1266 16.8223 13.0594C17.9322 13.0624 19.0226 12.7685 19.9807 12.2082C20.8016 11.4786 21.4126 10.5428 21.7503 9.49777C22.0639 8.73617 22.4895 7.72817 22.9151 7.59377C22.9487 7.57346 22.9883 7.56553 23.0271 7.57137C23.6929 7.74115 24.3227 8.02949 24.8863 8.42257C25.8021 9.08452 26.8759 9.49395 27.9999 9.60977C29.1239 9.49395 30.1977 9.08452 31.1135 8.42257C31.7855 8.01937 32.7263 7.48177 33.0847 7.59377C33.5103 7.72817 33.9359 8.73617 34.2495 9.49777C34.5872 10.5428 35.1982 11.4786 36.0191 12.2082C36.9772 12.7685 38.0676 13.0624 39.1775 13.0594C39.9839 13.1266 41.0815 13.2386 41.3279 13.5746C41.5743 13.9106 41.3279 14.9634 41.1487 15.7474C40.8013 16.8103 40.7395 17.9458 40.9695 19.0402C41.4177 20.0282 42.1214 20.8787 43.0079 21.5042C43.6575 22.0866 44.4639 22.8034 44.4639 23.2514C44.4639 23.6994 43.6575 24.4162 43.0079 24.9762Z" fill="#536784"/>
<path d="M27.9323 39.1553L19.4875 50.2209C19.3824 50.3591 19.2469 50.4714 19.0916 50.549C18.9363 50.6267 18.7652 50.6677 18.5915 50.6689C18.4931 50.665 18.3954 50.6499 18.3003 50.6241C18.0873 50.5693 17.895 50.453 17.7476 50.2897C17.6002 50.1264 17.5042 49.9233 17.4715 49.7057L16.7771 44.5313L11.6251 45.2257C11.406 45.2522 11.184 45.2142 10.9862 45.1163C10.7884 45.0184 10.6234 44.8649 10.5116 44.6746C10.3998 44.4843 10.346 44.2655 10.3568 44.0451C10.3676 43.8247 10.4425 43.6122 10.5723 43.4337L16.5083 35.6833H16.6203C17.3203 35.6761 18.0142 35.8134 18.6587 36.0865C18.7367 36.142 18.8049 36.2101 18.8603 36.2881L13.9995 42.6497L17.5835 42.1569C17.8797 42.1207 18.1783 42.2009 18.4165 42.3806C18.6547 42.5603 18.8138 42.8254 18.8603 43.1201L19.3307 46.7265L23.6315 41.1041C24.4875 40.8783 25.2982 40.507 26.0283 40.0065C26.6051 39.6078 27.2506 39.3192 27.9323 39.1553ZM45.4939 44.6657C45.3843 44.86 45.2191 45.0171 45.0195 45.1168C44.82 45.2166 44.5952 45.2545 44.3739 45.2257L39.2219 44.5313L38.5275 49.7057C38.4949 49.9233 38.3988 50.1264 38.2514 50.2897C38.1041 50.453 37.9118 50.5693 37.6987 50.6241C37.6037 50.6499 37.506 50.665 37.4075 50.6689C37.2339 50.6677 37.0628 50.6267 36.9075 50.549C36.7521 50.4714 36.6167 50.3591 36.5115 50.2209L28.0667 39.1553C28.7485 39.3192 29.394 39.6078 29.9707 40.0065C30.7059 40.4981 31.5151 40.8687 32.3675 41.1041L36.6683 46.7265L37.1387 43.1201C37.1853 42.8254 37.3444 42.5603 37.5826 42.3806C37.8208 42.2009 38.1194 42.1207 38.4155 42.1569L41.9995 42.6497L37.1387 36.2881C37.1942 36.2101 37.2623 36.142 37.3403 36.0865C37.9849 35.8134 38.6788 35.6761 39.3787 35.6833H39.4907L45.4267 43.4337C45.5574 43.6099 45.6333 43.8206 45.6453 44.0396C45.6572 44.2586 45.6046 44.4763 45.4939 44.6657ZM31.6194 29.9959C31.4381 29.996 31.2596 29.9514 31.0997 29.866L27.9995 28.2375L24.8994 29.866C24.7146 29.9628 24.5065 30.006 24.2985 29.9909C24.0905 29.9757 23.8909 29.9028 23.7221 29.7804C23.5533 29.6579 23.4221 29.4907 23.3431 29.2977C23.2642 29.1047 23.2407 28.8934 23.2754 28.6878L23.8667 25.2359L21.3602 22.7921C21.2104 22.6463 21.1045 22.4614 21.0543 22.2585C21.0042 22.0556 21.0118 21.8426 21.0764 21.6438C21.1409 21.445 21.2598 21.2682 21.4197 21.1335C21.5795 20.9988 21.7738 20.9114 21.9807 20.8814L25.4459 20.3841L26.996 17.2481C27.0984 17.0714 27.2453 16.9247 27.4223 16.8227C27.5992 16.7207 27.7998 16.667 28.004 16.667C28.2082 16.667 28.4089 16.7207 28.5858 16.8227C28.7627 16.9247 28.9097 17.0714 29.012 17.2481L30.5621 20.3841L34.0274 20.8881C34.2342 20.9181 34.4286 21.0055 34.5884 21.1402C34.7482 21.275 34.8671 21.4517 34.9317 21.6506C34.9962 21.8494 35.0039 22.0623 34.9537 22.2652C34.9036 22.4681 34.7976 22.653 34.6479 22.7988L32.1413 25.2427L32.7327 28.6945C32.76 28.8552 32.752 29.02 32.7091 29.1772C32.6663 29.3345 32.5896 29.4806 32.4844 29.6051C32.3792 29.7297 32.2482 29.8298 32.1003 29.8985C31.9524 29.9671 31.7914 30.0027 31.6283 30.0027L31.6194 29.9959ZM27.9995 25.8542C28.1805 25.8541 28.3589 25.8979 28.5192 25.9819L30.132 26.8286L29.8251 25.0366C29.7941 24.8576 29.807 24.6737 29.8628 24.5009C29.9186 24.328 30.0156 24.1713 30.1455 24.0443L31.4514 22.7742L29.6594 22.5121C29.4798 22.4857 29.3092 22.4161 29.1625 22.3091C29.0158 22.2022 28.8973 22.0612 28.8171 21.8983L28.0107 20.2654L27.2043 21.8983C27.1242 22.0612 27.0057 22.2022 26.859 22.3091C26.7122 22.4161 26.5417 22.4857 26.3621 22.5121L24.5701 22.7742L25.876 24.0443C26.0059 24.1713 26.1029 24.328 26.1587 24.5009C26.2145 24.6737 26.2274 24.8576 26.1963 25.0366L25.8895 26.8286L27.5023 25.9819C27.6559 25.9014 27.8261 25.8577 27.9995 25.8542Z" fill="#557AFF"/>
</svg>
