<svg width="57" height="57" viewBox="0 0 57 57" fill="none" xmlns="http://www.w3.org/2000/svg">
<path d="M48.6875 8.3125H8.3125C6.34499 8.3125 4.75 9.90749 4.75 11.875V38C4.75 39.9675 6.34499 41.5625 8.3125 41.5625H48.6875C50.655 41.5625 52.25 39.9675 52.25 38V11.875C52.25 9.90749 50.655 8.3125 48.6875 8.3125Z" fill="#BEC6C6"/>
<path d="M48.6875 11.875H8.3125V38H48.6875V11.875Z" fill="#F8F9F9"/>
<path d="M2.375 41.5625H54.625V45.125C54.625 46.0698 54.2497 46.976 53.5816 47.6441C52.9135 48.3122 52.0073 48.6875 51.0625 48.6875H5.9375C4.99267 48.6875 4.08653 48.3122 3.41843 47.6441C2.75033 46.976 2.375 46.0698 2.375 45.125V41.5625Z" fill="#F8F9F9"/>
<path d="M54.625 40.375H52.7725C53.2042 39.6578 53.434 38.8371 53.4375 38V11.875C53.4375 10.6152 52.9371 9.40704 52.0463 8.51624C51.1555 7.62544 49.9473 7.125 48.6875 7.125H8.3125C7.05272 7.125 5.84454 7.62544 4.95374 8.51624C4.06294 9.40704 3.5625 10.6152 3.5625 11.875V38C3.56601 38.8371 3.79578 39.6578 4.2275 40.375H2.375C2.06006 40.375 1.75801 40.5001 1.53531 40.7228C1.31261 40.9455 1.1875 41.2476 1.1875 41.5625V45.125C1.1875 46.3848 1.68795 47.593 2.57874 48.4838C3.46954 49.3746 4.67772 49.875 5.9375 49.875H51.0625C52.3223 49.875 53.5305 49.3746 54.4213 48.4838C55.3121 47.593 55.8125 46.3848 55.8125 45.125V41.5625C55.8125 41.2476 55.6874 40.9455 55.4647 40.7228C55.242 40.5001 54.9399 40.375 54.625 40.375ZM5.9375 38V11.875C5.9375 11.2451 6.18772 10.641 6.63312 10.1956C7.07852 9.75022 7.68261 9.5 8.3125 9.5H48.6875C49.3174 9.5 49.9215 9.75022 50.3669 10.1956C50.8123 10.641 51.0625 11.2451 51.0625 11.875V38C51.0625 38.6299 50.8123 39.234 50.3669 39.6794C49.9215 40.1248 49.3174 40.375 48.6875 40.375H8.3125C7.68261 40.375 7.07852 40.1248 6.63312 39.6794C6.18772 39.234 5.9375 38.6299 5.9375 38ZM53.4375 45.125C53.4375 45.7549 53.1873 46.359 52.7419 46.8044C52.2965 47.2498 51.6924 47.5 51.0625 47.5H5.9375C5.30761 47.5 4.70352 47.2498 4.25812 46.8044C3.81272 46.359 3.5625 45.7549 3.5625 45.125V42.75H53.4375V45.125Z" fill="#55565C"/>
<path d="M34.4375 45.125H22.5625C21.9326 45.125 21.3285 44.8748 20.8831 44.4294C20.4377 43.984 20.1875 43.3799 20.1875 42.75H36.8125C36.8125 43.3799 36.5623 43.984 36.1169 44.4294C35.6715 44.8748 35.0674 45.125 34.4375 45.125Z" fill="#BEC6C6"/>
<path d="M29.6875 14.25H13.0625C11.7508 14.25 10.6875 15.3133 10.6875 16.625V26.125C10.6875 27.4367 11.7508 28.5 13.0625 28.5H29.6875C30.9992 28.5 32.0625 27.4367 32.0625 26.125V16.625C32.0625 15.3133 30.9992 14.25 29.6875 14.25Z" fill="#EF4D41"/>
<path d="M30.875 32.0625H26.125C26.125 31.7476 25.9999 31.4455 25.7772 31.2228C25.5545 31.0001 25.2524 30.875 24.9375 30.875C24.6226 30.875 24.3205 31.0001 24.0978 31.2228C23.8751 31.4455 23.75 31.7476 23.75 32.0625H11.875C11.5601 32.0625 11.258 32.1876 11.0353 32.4103C10.8126 32.633 10.6875 32.9351 10.6875 33.25C10.6875 33.5649 10.8126 33.867 11.0353 34.0897C11.258 34.3124 11.5601 34.4375 11.875 34.4375H23.75C23.75 34.7524 23.8751 35.0545 24.0978 35.2772C24.3205 35.4999 24.6226 35.625 24.9375 35.625C25.2524 35.625 25.5545 35.4999 25.7772 35.2772C25.9999 35.0545 26.125 34.7524 26.125 34.4375H30.875C31.1899 34.4375 31.492 34.3124 31.7147 34.0897C31.9374 33.867 32.0625 33.5649 32.0625 33.25C32.0625 32.9351 31.9374 32.633 31.7147 32.4103C31.492 32.1876 31.1899 32.0625 30.875 32.0625Z" fill="#BEC6C6"/>
<path d="M38 14.25H35.625C34.9692 14.25 34.4375 14.7817 34.4375 15.4375V17.8125C34.4375 18.4683 34.9692 19 35.625 19H38C38.6558 19 39.1875 18.4683 39.1875 17.8125V15.4375C39.1875 14.7817 38.6558 14.25 38 14.25Z" fill="#BEC6C6"/>
<path d="M45.125 17.8125H42.75C42.4351 17.8125 42.133 17.6874 41.9103 17.4647C41.6876 17.242 41.5625 16.9399 41.5625 16.625C41.5625 16.3101 41.6876 16.008 41.9103 15.7853C42.133 15.5626 42.4351 15.4375 42.75 15.4375H45.125C45.4399 15.4375 45.742 15.5626 45.9647 15.7853C46.1874 16.008 46.3125 16.3101 46.3125 16.625C46.3125 16.9399 46.1874 17.242 45.9647 17.4647C45.742 17.6874 45.4399 17.8125 45.125 17.8125ZM45.125 23.75H35.625C35.3101 23.75 35.008 23.6249 34.7853 23.4022C34.5626 23.1795 34.4375 22.8774 34.4375 22.5625C34.4375 22.2476 34.5626 21.9455 34.7853 21.7228C35.008 21.5001 35.3101 21.375 35.625 21.375H45.125C45.4399 21.375 45.742 21.5001 45.9647 21.7228C46.1874 21.9455 46.3125 22.2476 46.3125 22.5625C46.3125 22.8774 46.1874 23.1795 45.9647 23.4022C45.742 23.6249 45.4399 23.75 45.125 23.75Z" fill="#BEC6C6"/>
<path d="M38 26.125H35.625C34.9692 26.125 34.4375 26.6567 34.4375 27.3125V29.6875C34.4375 30.3433 34.9692 30.875 35.625 30.875H38C38.6558 30.875 39.1875 30.3433 39.1875 29.6875V27.3125C39.1875 26.6567 38.6558 26.125 38 26.125Z" fill="#BEC6C6"/>
<path d="M45.125 29.6875H42.75C42.4351 29.6875 42.133 29.5624 41.9103 29.3397C41.6876 29.117 41.5625 28.8149 41.5625 28.5C41.5625 28.1851 41.6876 27.883 41.9103 27.6603C42.133 27.4376 42.4351 27.3125 42.75 27.3125H45.125C45.4399 27.3125 45.742 27.4376 45.9647 27.6603C46.1874 27.883 46.3125 28.1851 46.3125 28.5C46.3125 28.8149 46.1874 29.117 45.9647 29.3397C45.742 29.5624 45.4399 29.6875 45.125 29.6875ZM45.125 35.625H35.625C35.3101 35.625 35.008 35.4999 34.7853 35.2772C34.5626 35.0545 34.4375 34.7524 34.4375 34.4375C34.4375 34.1226 34.5626 33.8205 34.7853 33.5978C35.008 33.3751 35.3101 33.25 35.625 33.25H45.125C45.4399 33.25 45.742 33.3751 45.9647 33.5978C46.1874 33.8205 46.3125 34.1226 46.3125 34.4375C46.3125 34.7524 46.1874 35.0545 45.9647 35.2772C45.742 35.4999 45.4399 35.625 45.125 35.625Z" fill="#BEC6C6"/>
<path d="M17.8125 24.0823V18.6673C17.8117 18.4585 17.8659 18.2531 17.9698 18.0719C18.0737 17.8907 18.2235 17.7402 18.4042 17.6354C18.5849 17.5306 18.79 17.4753 18.9988 17.4751C19.2077 17.4749 19.4129 17.5298 19.5938 17.6342L24.3438 20.3417C24.5265 20.4453 24.6785 20.5955 24.7843 20.777C24.89 20.9585 24.9458 21.1648 24.9458 21.3748C24.9458 21.5849 24.89 21.7912 24.7843 21.9727C24.6785 22.1542 24.5265 22.3044 24.3438 22.4079L19.5938 25.1154C19.4129 25.2199 19.2077 25.2748 18.9988 25.2745C18.79 25.2743 18.5849 25.2191 18.4042 25.1143C18.2235 25.0095 18.0737 24.8589 17.9698 24.6777C17.8659 24.4965 17.8117 24.2912 17.8125 24.0823Z" fill="#F8F9F9"/>
</svg>
