<svg width="56" height="56" viewBox="0 0 56 56" fill="none" xmlns="http://www.w3.org/2000/svg">
<g clip-path="url(#clip0_122_2009)">
<path d="M51 15H5V44H51V15Z" fill="#F8F9F9"/>
<path d="M20 6.13715V10.9395C20 10.9395 33.4547 10.6924 34.0305 10.9395C34.6062 11.1866 36.0242 10.6459 36.0348 9.87233C37.3995 7.79465 37.0807 6.58996 36.5143 4.00276H22.0044C20.7402 3.96872 20.1835 4.22564 20 6.13715Z" fill="#7728DB"/>
<path d="M54.6328 47.3214H52.7188V17.5167C52.7175 16.4293 52.285 15.3868 51.5161 14.6178C50.7472 13.8489 49.7046 13.4164 48.6172 13.4152H36.7826V12.8026C36.7827 12.4104 36.6971 12.023 36.5319 11.6673C36.3667 11.3116 36.1259 10.9962 35.8263 10.7432C36.441 10.1141 36.7844 9.26893 36.7826 8.38936V4.66602C36.7826 4.55829 36.7614 4.45162 36.7202 4.35209C36.679 4.25256 36.6185 4.16213 36.5424 4.08596C36.4662 4.00978 36.3758 3.94936 36.2762 3.90814C36.1767 3.86691 36.07 3.8457 35.9623 3.8457H22.4417C21.5492 3.84672 20.6935 4.20172 20.0623 4.83284C19.4312 5.46396 19.0762 6.31965 19.0752 7.21219V13.4152H7.38281C6.29539 13.4164 5.25285 13.8489 4.48392 14.6178C3.71499 15.3868 3.28247 16.4293 3.28125 17.5167V47.3214H1.36719C1.00471 47.3218 0.657199 47.466 0.40089 47.7223C0.144581 47.9786 0.000407604 48.3261 0 48.6886L0 51.8605C0.00122368 52.9479 0.433744 53.9904 1.20267 54.7594C1.9716 55.5283 3.01414 55.9608 4.10156 55.962H51.8984C52.9859 55.9608 54.0284 55.5283 54.7973 54.7594C55.5663 53.9904 55.9988 52.9479 56 51.8605V48.6886C55.9996 48.3261 55.8554 47.9786 55.5991 47.7223C55.3428 47.466 54.9953 47.3218 54.6328 47.3214V47.3214ZM36.7814 19.4308H46.7031V42.9464H44.1762V37.582C44.1744 35.2733 43.368 33.0374 41.8957 31.259C40.4235 29.4807 38.3775 28.271 36.1097 27.8381L32.0906 27.0743V26.9254C33.4878 26.2306 34.6656 25.1627 35.4935 23.84C36.3214 22.5172 36.7671 20.9912 36.7814 19.4308ZM37.4338 38.6601C37.3261 38.6601 37.2194 38.6813 37.1199 38.7225C37.0204 38.7637 36.9299 38.8241 36.8538 38.9003C36.7776 38.9765 36.7172 39.0669 36.6759 39.1665C36.6347 39.266 36.6135 39.3727 36.6135 39.4804V42.9464H19.3865V39.4804C19.3865 39.2628 19.3001 39.0542 19.1462 38.9003C18.9924 38.7465 18.7838 38.6601 18.5662 38.6601C18.3486 38.6601 18.14 38.7465 17.9861 38.9003C17.8323 39.0542 17.7459 39.2628 17.7459 39.4804V42.9464H13.4644V37.582C13.466 35.6552 14.139 33.7892 15.3677 32.305C16.5964 30.8208 18.304 29.8112 20.1966 29.4499L23.7673 28.7714V29.2193C23.7685 30.2779 24.1895 31.2929 24.9381 32.0414C25.6867 32.79 26.7016 33.2111 27.7602 33.2123H28.0976C29.1563 33.2111 30.1712 32.79 30.9197 32.0414C31.6683 31.2929 32.0894 30.2779 32.0906 29.2193V28.7443L35.8034 29.4499C37.696 29.8112 39.4036 30.8208 40.6323 32.305C41.861 33.7892 42.534 35.6552 42.5356 37.582V42.9464H38.2541V39.4804C38.2541 39.3727 38.2329 39.266 38.1917 39.1665C38.1505 39.0669 38.09 38.9765 38.0139 38.9003C37.9377 38.8241 37.8473 38.7637 37.7477 38.7225C37.6482 38.6813 37.5415 38.6601 37.4338 38.6601V38.6601ZM25.4079 29.2193V27.7941C25.4079 27.7929 25.4079 27.7918 25.4079 27.7906V27.541C26.0988 27.7196 26.8097 27.8097 27.5233 27.8093H28.3345C29.0482 27.8097 29.759 27.7196 30.4499 27.541V27.7636C30.45 27.7647 30.4499 27.7659 30.4499 27.7671V29.2193C30.4492 29.843 30.2012 30.4409 29.7602 30.8819C29.3192 31.3229 28.7213 31.5709 28.0976 31.5716H27.7602C27.1365 31.5709 26.5386 31.3229 26.0976 30.8819C25.6566 30.4409 25.4086 29.843 25.4079 29.2193V29.2193ZM20.7158 7.21219C20.7163 6.75462 20.8983 6.31594 21.2219 5.99239C21.5454 5.66883 21.9841 5.48684 22.4417 5.48633H35.142V8.38936C35.1428 8.81155 34.9884 9.21932 34.7082 9.53508C34.4279 9.85085 34.0414 10.0526 33.6221 10.1019H21.7759C21.4115 10.1015 21.0508 10.1754 20.7158 10.3189V7.21219ZM20.7158 12.8026C20.7161 12.5215 20.8279 12.2521 21.0267 12.0533C21.2254 11.8546 21.4949 11.7428 21.7759 11.7425H34.0818C34.3629 11.7428 34.6324 11.8546 34.8311 12.0533C35.0299 12.2521 35.1417 12.5215 35.142 12.8026V19.3611C35.14 21.166 34.4221 22.8963 33.1459 24.1725C31.8697 25.4488 30.1394 26.1666 28.3345 26.1687H27.5233C25.7185 26.1666 23.9881 25.4488 22.7119 24.1725C21.4357 22.8963 20.7179 21.166 20.7158 19.3611V12.8026ZM19.0765 19.4308C19.0907 20.9912 19.5365 22.5172 20.3644 23.84C21.1923 25.1627 22.37 26.2306 23.7673 26.9254V27.1014L19.8903 27.8381C17.6225 28.271 15.5765 29.4807 14.1043 31.259C12.632 33.0374 11.8256 35.2733 11.8238 37.582V42.9464H9.29688V19.4308H19.0765ZM4.92188 17.5167C4.92261 16.8643 5.18213 16.2388 5.64348 15.7774C6.10484 15.316 6.73036 15.0565 7.38281 15.0558H19.0752V17.7902H9.02344C8.66096 17.7906 8.31345 17.9347 8.05714 18.1911C7.80083 18.4474 7.65666 18.7949 7.65625 19.1574V43.2198C7.65666 43.5823 7.80083 43.9298 8.05714 44.1861C8.31345 44.4425 8.66096 44.5866 9.02344 44.587H46.9766C47.339 44.5866 47.6866 44.4425 47.9429 44.1861C48.1992 43.9298 48.3433 43.5823 48.3438 43.2198V19.1574C48.3433 18.7949 48.1992 18.4474 47.9429 18.1911C47.6866 17.9347 47.339 17.7906 46.9766 17.7902H36.7826V15.0558H48.6172C49.2696 15.0565 49.8952 15.316 50.3565 15.7774C50.8179 16.2388 51.0774 16.8643 51.0781 17.5167V47.3214H4.92188V17.5167ZM32.8907 48.962L32.1897 50.551C32.1254 50.6965 32.0203 50.8202 31.887 50.907C31.7538 50.9938 31.5982 51.0401 31.4391 51.0402H24.5609C24.4018 51.0401 24.2462 50.9938 24.113 50.907C23.9797 50.8202 23.8746 50.6965 23.8103 50.551L23.1093 48.962H32.8907ZM54.3594 51.8605C54.3586 52.5129 54.0991 53.1384 53.6378 53.5998C53.1764 54.0612 52.5509 54.3207 51.8984 54.3214H4.10156C3.44911 54.3207 2.82359 54.0612 2.36223 53.5998C1.90088 53.1384 1.64136 52.5129 1.64062 51.8605V48.962H21.3162L22.3093 51.2132C22.502 51.6497 22.8175 52.0208 23.2172 52.2813C23.6169 52.5419 24.0837 52.6806 24.5609 52.6808H31.4391C31.9163 52.6806 32.3831 52.5419 32.7828 52.2813C33.1825 52.0208 33.498 51.6497 33.6907 51.2132L34.6838 48.962H54.3594V51.8605Z" fill="#55565C" stroke="#55565C" stroke-width="0.5"/>
</g>
<defs>
<clipPath id="clip0_122_2009">
<rect width="56" height="56" fill="white"/>
</clipPath>
</defs>
</svg>
